<mxfile host="app.diagrams.net" modified="2023-09-21T12:16:05.006Z" agent="Mozilla/5.0 (Windows NT 10.0; Win64; x64) AppleWebKit/537.36 (KHTML, like Gecko) Chrome/116.0.0.0 Safari/537.36 OPR/102.0.0.0" version="21.8.0" etag="eGFOiQlhk6Spg7LYNkmK" type="github">
  <diagram name="Page-1" id="4M-Pqt-2F0yiWat1dQo6">
    <mxGraphModel>
      <root>
        <mxCell id="0" />
        <mxCell id="1" parent="0" />
      </root>
    </mxGraphModel>
  </diagram>
</mxfile>
